<svg id="visual" viewBox="0 0 900 450" width="900" height="450" xmlns="http://www.w3.org/2000/svg" xmlns:xlink="http://www.w3.org/1999/xlink" version="1.1"><rect x="0" y="0" width="900" height="450" fill="#fff"></rect><defs><linearGradient id="grad1_0" x1="50%" y1="0%" x2="100%" y2="100%"><stop offset="10%" stop-color="#ffffff" stop-opacity="1"></stop><stop offset="90%" stop-color="#ffffff" stop-opacity="1"></stop></linearGradient></defs><defs><linearGradient id="grad2_0" x1="0%" y1="0%" x2="50%" y2="100%"><stop offset="10%" stop-color="#ffffff" stop-opacity="1"></stop><stop offset="90%" stop-color="#ffffff" stop-opacity="1"></stop></linearGradient></defs><g transform="translate(900, 0)"><path d="M0 405C-58.8 404.9 -117.6 404.8 -155 374.2C-192.4 343.5 -208.3 282.4 -243.2 243.2C-278.2 204.1 -332 186.9 -362.2 150C-392.3 113.1 -398.6 56.6 -405 0L0 0Z" fill="#0066ff"></path></g><g transform="translate(0, 450)"><path d="M0 -405C48.5 -390.4 96.9 -375.9 148.9 -359.4C200.8 -342.9 256.2 -324.4 286.4 -286.4C316.6 -248.3 321.6 -190.7 337.2 -139.7C352.8 -88.7 378.9 -44.3 405 0L0 0Z" fill="#0066ff"></path></g></svg>