<svg id="visual" viewBox="0 0 450 900" width="450" height="900" xmlns="http://www.w3.org/2000/svg" xmlns:xlink="http://www.w3.org/1999/xlink" version="1.1"><rect x="0" y="0" width="450" height="900" fill="#FFFFFF"></rect><defs><linearGradient id="grad1_0" x1="0%" y1="100%" x2="100%" y2="0%"><stop offset="30%" stop-color="#0066ff" stop-opacity="1"></stop><stop offset="70%" stop-color="#0066ff" stop-opacity="1"></stop></linearGradient></defs><defs><linearGradient id="grad1_1" x1="0%" y1="100%" x2="100%" y2="0%"><stop offset="30%" stop-color="#0066ff" stop-opacity="1"></stop><stop offset="70%" stop-color="#acafff" stop-opacity="1"></stop></linearGradient></defs><defs><linearGradient id="grad1_2" x1="0%" y1="100%" x2="100%" y2="0%"><stop offset="30%" stop-color="#ffffff" stop-opacity="1"></stop><stop offset="70%" stop-color="#acafff" stop-opacity="1"></stop></linearGradient></defs><defs><linearGradient id="grad2_0" x1="0%" y1="100%" x2="100%" y2="0%"><stop offset="30%" stop-color="#0066ff" stop-opacity="1"></stop><stop offset="70%" stop-color="#0066ff" stop-opacity="1"></stop></linearGradient></defs><defs><linearGradient id="grad2_1" x1="0%" y1="100%" x2="100%" y2="0%"><stop offset="30%" stop-color="#acafff" stop-opacity="1"></stop><stop offset="70%" stop-color="#0066ff" stop-opacity="1"></stop></linearGradient></defs><defs><linearGradient id="grad2_2" x1="0%" y1="100%" x2="100%" y2="0%"><stop offset="30%" stop-color="#acafff" stop-opacity="1"></stop><stop offset="70%" stop-color="#ffffff" stop-opacity="1"></stop></linearGradient></defs><g transform="translate(450, 900)"><path d="M-405 0C-381.1 -62.8 -357.3 -125.5 -326.5 -188.5C-295.7 -251.5 -258.1 -314.6 -202.5 -350.7C-146.9 -386.9 -73.5 -395.9 0 -405L0 0Z" fill="#d7d6ff"></path><path d="M-270 0C-254.1 -41.8 -238.2 -83.7 -217.7 -125.7C-197.2 -167.6 -172 -209.7 -135 -233.8C-98 -257.9 -49 -264 0 -270L0 0Z" fill="#7789ff"></path><path d="M-135 0C-127 -20.9 -119.1 -41.8 -108.8 -62.8C-98.6 -83.8 -86 -104.9 -67.5 -116.9C-49 -129 -24.5 -132 0 -135L0 0Z" fill="#0066ff"></path></g><g transform="translate(0, 0)"><path d="M405 0C386.7 66 368.3 131.9 336.9 194.5C305.4 257.1 260.8 316.2 202.5 350.7C144.2 385.3 72.1 395.1 0 405L0 0Z" fill="#d7d6ff"></path><path d="M270 0C257.8 44 245.6 88 224.6 129.7C203.6 171.4 173.9 210.8 135 233.8C96.1 256.8 48.1 263.4 0 270L0 0Z" fill="#7789ff"></path><path d="M135 0C128.9 22 122.8 44 112.3 64.8C101.8 85.7 86.9 105.4 67.5 116.9C48.1 128.4 24 131.7 0 135L0 0Z" fill="#0066ff"></path></g></svg>