<svg id="visual" viewBox="0 0 900 600" width="900" height="600" xmlns="http://www.w3.org/2000/svg" xmlns:xlink="http://www.w3.org/1999/xlink" version="1.1"><rect x="0" y="0" width="900" height="600" fill="#FFFFFF"></rect><defs><linearGradient id="grad1_0" x1="33.3%" y1="0%" x2="100%" y2="100%"><stop offset="20%" stop-color="#ffffff" stop-opacity="1"></stop><stop offset="80%" stop-color="#ffffff" stop-opacity="1"></stop></linearGradient></defs><defs><linearGradient id="grad2_0" x1="0%" y1="0%" x2="66.7%" y2="100%"><stop offset="20%" stop-color="#ffffff" stop-opacity="1"></stop><stop offset="80%" stop-color="#ffffff" stop-opacity="1"></stop></linearGradient></defs><g transform="translate(900, 0)"><path d="M0 324.5C-36.4 323 -72.8 321.5 -98.9 304.3C-125 287.1 -140.7 254.3 -171.6 236.2C-202.5 218.2 -248.5 215.1 -262.5 190.7C-276.5 166.4 -258.5 120.9 -263.4 85.6C-268.4 50.3 -296.5 25.1 -324.5 0L0 0Z" fill="#0066FF"></path></g><g transform="translate(0, 600)"><path d="M0 -324.5C32.1 -311.2 64.3 -297.8 92.1 -283.4C119.9 -269 143.3 -253.5 174.6 -240.3C205.8 -227 244.8 -215.9 262.5 -190.7C280.2 -165.5 276.6 -126.2 283.4 -92.1C290.2 -57.9 307.3 -29 324.5 0L0 0Z" fill="#0066FF"></path></g></svg>