<svg id="visual" viewBox="0 0 675 900" width="675" height="900" xmlns="http://www.w3.org/2000/svg" xmlns:xlink="http://www.w3.org/1999/xlink" version="1.1"><rect x="0" y="0" width="675" height="900" fill="#FFFFFF"></rect><defs><linearGradient id="grad1_0" x1="0%" y1="100%" x2="100%" y2="0%"><stop offset="30%" stop-color="#0066ff" stop-opacity="1"></stop><stop offset="70%" stop-color="#0066ff" stop-opacity="1"></stop></linearGradient></defs><defs><linearGradient id="grad1_1" x1="0%" y1="100%" x2="100%" y2="0%"><stop offset="30%" stop-color="#0066ff" stop-opacity="1"></stop><stop offset="70%" stop-color="#acafff" stop-opacity="1"></stop></linearGradient></defs><defs><linearGradient id="grad1_2" x1="0%" y1="100%" x2="100%" y2="0%"><stop offset="30%" stop-color="#ffffff" stop-opacity="1"></stop><stop offset="70%" stop-color="#acafff" stop-opacity="1"></stop></linearGradient></defs><defs><linearGradient id="grad2_0" x1="0%" y1="100%" x2="100%" y2="0%"><stop offset="30%" stop-color="#0066ff" stop-opacity="1"></stop><stop offset="70%" stop-color="#0066ff" stop-opacity="1"></stop></linearGradient></defs><defs><linearGradient id="grad2_1" x1="0%" y1="100%" x2="100%" y2="0%"><stop offset="30%" stop-color="#acafff" stop-opacity="1"></stop><stop offset="70%" stop-color="#0066ff" stop-opacity="1"></stop></linearGradient></defs><defs><linearGradient id="grad2_2" x1="0%" y1="100%" x2="100%" y2="0%"><stop offset="30%" stop-color="#acafff" stop-opacity="1"></stop><stop offset="70%" stop-color="#ffffff" stop-opacity="1"></stop></linearGradient></defs><g transform="translate(675, 900)"><path d="M-506.2 0C-495.6 -93 -484.9 -186 -438.4 -253.1C-391.9 -320.2 -309.5 -361.4 -230.5 -399.2C-151.5 -437.1 -75.7 -471.7 0 -506.2L0 0Z" fill="#d7d6ff"></path><path d="M-337.5 0C-330.4 -62 -323.3 -124 -292.3 -168.8C-261.3 -213.5 -206.4 -240.9 -153.7 -266.2C-101 -291.4 -50.5 -314.5 0 -337.5L0 0Z" fill="#7789ff"></path><path d="M-168.7 0C-165.2 -31 -161.6 -62 -146.1 -84.4C-130.6 -106.7 -103.2 -120.5 -76.8 -133.1C-50.5 -145.7 -25.2 -157.2 0 -168.7L0 0Z" fill="#0066ff"></path></g><g transform="translate(0, 0)"><path d="M506.3 0C499.9 100.5 493.6 201 438.4 253.1C383.2 305.2 279.2 308.8 198 342.9C116.8 377.1 58.4 441.7 0 506.3L0 0Z" fill="#d7d6ff"></path><path d="M337.5 0C333.3 67 329.1 134 292.3 168.7C255.5 203.5 186.1 205.9 132 228.6C77.9 251.4 38.9 294.4 0 337.5L0 0Z" fill="#7789ff"></path><path d="M168.8 0C166.6 33.5 164.5 67 146.1 84.4C127.7 101.7 93.1 102.9 66 114.3C38.9 125.7 19.5 147.2 0 168.8L0 0Z" fill="#0066ff"></path></g></svg>