<svg id="visual" viewBox="0 0 900 600" width="900" height="600" xmlns="http://www.w3.org/2000/svg" xmlns:xlink="http://www.w3.org/1999/xlink" version="1.1"><rect x="0" y="0" width="900" height="600" fill="#FFFFFF"></rect><defs><linearGradient id="grad1_0" x1="33.3%" y1="0%" x2="100%" y2="100%"><stop offset="20%" stop-color="#ffffff" stop-opacity="1"></stop><stop offset="80%" stop-color="#ffffff" stop-opacity="1"></stop></linearGradient></defs><defs><linearGradient id="grad2_0" x1="0%" y1="0%" x2="66.7%" y2="100%"><stop offset="20%" stop-color="#ffffff" stop-opacity="1"></stop><stop offset="80%" stop-color="#ffffff" stop-opacity="1"></stop></linearGradient></defs><g transform="translate(900, 0)"><path d="M0 486.7C-70.4 487.5 -140.9 488.3 -186.3 449.7C-231.6 411.1 -251.9 333.3 -280.7 280.7C-309.5 228.2 -346.7 201 -382.5 158.4C-418.2 115.9 -452.5 57.9 -486.7 0L0 0Z" fill="#0066FF"></path></g><g transform="translate(0, 600)"><path d="M0 -486.7C62.4 -465.9 124.7 -445.1 170.3 -411.1C215.8 -377.2 244.6 -330.1 294.2 -294.2C343.7 -258.2 414.1 -233.4 449.7 -186.3C485.3 -139.1 486 -69.6 486.7 0L0 0Z" fill="#0066FF"></path></g></svg>