<svg id="visual" viewBox="0 0 450 900" width="450" height="900" xmlns="http://www.w3.org/2000/svg" xmlns:xlink="http://www.w3.org/1999/xlink" version="1.1"><rect x="0" y="0" width="450" height="900" fill="#FFFFFF"></rect><path d="M0 419L15 433.5C30 448 60 477 90 473.8C120 470.7 150 435.3 180 423.8C210 412.3 240 424.7 270 441C300 457.3 330 477.7 360 481.5C390 485.3 420 472.7 435 466.3L450 460L450 901L435 901C420 901 390 901 360 901C330 901 300 901 270 901C240 901 210 901 180 901C150 901 120 901 90 901C60 901 30 901 15 901L0 901Z" fill="#6198ff"></path><path d="M0 453L15 468.7C30 484.3 60 515.7 90 539.3C120 563 150 579 180 585.3C210 591.7 240 588.3 270 577.5C300 566.7 330 548.3 360 531.2C390 514 420 498 435 490L450 482L450 901L435 901C420 901 390 901 360 901C330 901 300 901 270 901C240 901 210 901 180 901C150 901 120 901 90 901C60 901 30 901 15 901L0 901Z" fill="#3c80ff"></path><path d="M0 562L15 577.3C30 592.7 60 623.3 90 636.3C120 649.3 150 644.7 180 630.5C210 616.3 240 592.7 270 589.2C300 585.7 330 602.3 360 612.8C390 623.3 420 627.7 435 629.8L450 632L450 901L435 901C420 901 390 901 360 901C330 901 300 901 270 901C240 901 210 901 180 901C150 901 120 901 90 901C60 901 30 901 15 901L0 901Z" fill="#0066ff"></path><path d="M0 756L15 757.2C30 758.3 60 760.7 90 755.2C120 749.7 150 736.3 180 723.5C210 710.7 240 698.3 270 704.8C300 711.3 330 736.7 360 733C390 729.3 420 696.7 435 680.3L450 664L450 901L435 901C420 901 390 901 360 901C330 901 300 901 270 901C240 901 210 901 180 901C150 901 120 901 90 901C60 901 30 901 15 901L0 901Z" fill="#0059dd"></path><path d="M0 749L15 763.3C30 777.7 60 806.3 90 817.3C120 828.3 150 821.7 180 809.3C210 797 240 779 270 774C300 769 330 777 360 790.3C390 803.7 420 822.3 435 831.7L450 841L450 901L435 901C420 901 390 901 360 901C330 901 300 901 270 901C240 901 210 901 180 901C150 901 120 901 90 901C60 901 30 901 15 901L0 901Z" fill="#004cbb"></path></svg>