<svg id="visual" viewBox="0 0 900 450" width="900" height="450" xmlns="http://www.w3.org/2000/svg" xmlns:xlink="http://www.w3.org/1999/xlink" version="1.1"><rect x="0" y="0" width="900" height="450" fill="#0066ff"></rect><path d="M0 148L37.5 163.5C75 179 150 210 225 223.5C300 237 375 233 450 212.2C525 191.3 600 153.7 675 145.5C750 137.3 825 158.7 862.5 169.3L900 180L900 0L862.5 0C825 0 750 0 675 0C600 0 525 0 450 0C375 0 300 0 225 0C150 0 75 0 37.5 0L0 0Z" fill="#FFFFFF" stroke-linecap="round" stroke-linejoin="miter"></path></svg>