<svg id="visual" viewBox="0 0 900 450" width="900" height="450" xmlns="http://www.w3.org/2000/svg" xmlns:xlink="http://www.w3.org/1999/xlink" version="1.1"><g><g transform="translate(42 446)"><path d="M94.4 -113.7C114 -96.1 115.7 -58.4 119.9 -22.9C124 12.6 130.6 45.9 118.3 69.5C106.1 93 75 106.9 41.6 122.8C8.2 138.7 -27.6 156.5 -52.9 146.7C-78.1 136.9 -92.8 99.5 -109.1 65.7C-125.5 31.9 -143.4 1.7 -143.7 -30.3C-143.9 -62.3 -126.5 -96.1 -99.6 -112.4C-72.7 -128.7 -36.3 -127.5 0.5 -128.1C37.4 -128.8 74.8 -131.2 94.4 -113.7Z" stroke="#F7760E" fill="none" stroke-width="5"></path></g><g transform="translate(886 278)"><path d="M91.8 -108.9C120.1 -85.6 145 -57.8 145.7 -29.3C146.4 -0.8 123 28.3 102.4 54.5C81.8 80.7 64 103.9 39.7 115.6C15.3 127.3 -15.6 127.5 -43.6 118.1C-71.6 108.6 -96.7 89.5 -116.8 63.3C-136.8 37.1 -151.7 3.9 -143.6 -22.3C-135.4 -48.5 -104.1 -67.7 -76.3 -91C-48.6 -114.4 -24.3 -142 3.7 -146.4C31.7 -150.9 63.5 -132.2 91.8 -108.9Z" stroke="#F7760E" fill="none" stroke-width="5"></path></g></g></svg>